<?xml version="1.0" encoding="UTF-8"?>
<svg id="Layer_1" data-name="Layer 1" xmlns="http://www.w3.org/2000/svg" viewBox="0 0 1080 1080">
  <defs>
    <style>
      .cls-1 {
        fill: #fff;
      }
    </style>
  </defs>
  <path class="cls-1" d="M150.86,905.93c.79-.3,1.09-.95,1.36-1.7,.65-1.77,1.76-3.22,3.28-4.35,4.22-3.15,7.63-7.07,10.74-11.27,4.4-5.95,8.05-12.36,11.29-19,6.88-14.08,12.04-28.8,16.31-43.85,4.61-16.29,8.17-32.82,11.18-49.47,2.45-13.56,4.49-27.18,6.23-40.84,1.1-8.61,2.03-17.24,2.86-25.87,1.09-11.34,2.09-22.69,2.96-34.04,.63-8.11,1.04-16.24,1.47-24.37,1.09-20.59,1.57-41.2,1.71-61.82,.08-12.04-.03-24.09-.32-36.13-.36-15.08-.81-30.16-1.53-45.22-.63-13.22-1.52-26.43-2.59-39.62-1.1-13.51-2.42-27.01-3.89-40.49-2.05-18.76-4.64-37.46-7.74-56.07-4.96-29.76-11.19-59.23-19.56-88.24-.54-1.88-1.18-3.72-1.67-5.61-.68-2.6-.62-5.17,.74-7.58,1.34-2.39,3.4-3.82,6.02-4.64,5.59-1.73,11.18-3.47,16.7-5.41,31.01-10.9,60.47-25.1,88.59-42.08,11.79-7.12,23.43-14.5,35.14-21.76,1.19-.74,2.38-1.45,3.15-2.74,.42-.7,1.18-1.29,1.92-1.68,2.97-1.56,5.98-3.07,9.02-4.51,.76-.36,1.66-.56,2.5-.58,2.41-.06,4.38,1.7,4.7,4.08,.07,.53,.05,1.08,.04,1.63-.18,9.17,1.12,18.18,2.98,27.11,4.39,21.08,12.24,40.88,22.2,59.9,11.33,21.62,25.19,41.54,40.76,60.29,6.38,7.69,13,15.16,20.23,22.07,3.77,3.61,7.63,7.11,11.95,10.04,2.5,1.7,5.13,3.25,7.83,4.61,2.73,1.38,5.59,1.9,8.8,1.42,7.13-1.07,13.15,6.05,10.12,13.13-2.77,6.47-6.74,12.12-11.89,16.93-6.18,5.77-13.38,9.56-21.72,11.09-7.29,1.34-14.48,.67-21.57-1.35-6.3-1.8-12.17-4.57-17.76-7.96-9.34-5.66-17.56-12.71-25.24-20.43-10.52-10.57-19.78-22.19-28.39-34.34-20.8-29.38-37.32-61.02-49.79-94.79-.37-.99-.8-1.95-1.22-2.97-.51,.16-.83,.2-1.09,.35-2.89,1.71-5.76,3.44-8.74,5.22,.13,.71,.16,1.35,.36,1.93,6.09,17.9,10.4,36.25,14.04,54.78,2.71,13.84,4.97,27.75,6.92,41.72,1.32,9.45,2.47,18.93,3.53,28.41,1.31,11.86,2.5,23.73,3.63,35.61,.63,6.59,1.07,13.19,1.54,19.79,.59,8.12,1.14,16.23,1.67,24.35,.28,4.22,.54,8.45,.72,12.67,.53,12.58,1.08,25.15,1.52,37.73,.78,22.12,1.12,44.26,1.09,66.4-.03,22.57-.46,45.14-1.31,67.7-.48,12.79-1.1,25.59-1.94,38.36-.9,13.75-1.97,27.49-3.27,41.2-1.79,18.79-4.11,37.52-7.49,56.1-.04,.2,.06,.42,.11,.76,1.07-.57,1.37-1.65,1.9-2.52,6.9-11.16,13.65-22.43,20.71-33.49,14.53-22.8,30-44.94,46.86-66.09,11.31-14.19,23.16-27.89,36.31-40.42,4.95-4.71,10.19-9.12,15.3-13.66,.49-.43,1.08-.77,1.48-1.27,.38-.48,.8-1.09,.83-1.66,.25-5.85,.42-11.71,.59-17.56,0-.2-.14-.4-.29-.8-1.33,.26-2.7,.51-4.07,.79-14.37,3-28.86,4.99-43.58,4.87-5.65-.04-11.29-.47-16.77-1.94-2.29-.61-4.57-1.44-6.66-2.54-6.02-3.18-9.61-8.31-11.11-14.89-1.03-4.5-.91-9.03-.18-13.58,.94-5.85,7.14-9.5,12.49-7.46,2.89,1.1,5.85,1.45,8.9,1.6,9.24,.43,18.44,.08,27.65-.67,29.1-2.38,57.45-8.56,85.38-16.82,5.34-1.58,5.72-1.66,10.4,1.17,6.31,3.82,12.54,7.77,18.81,11.66,1.84,1.15,3.68,2.3,5.53,3.43,4.88,2.96,7.01,7.68,5.91,13.3-.25,1.27-.56,2.57-1.1,3.74-2.3,4.95-3.59,10.23-5,15.45-3.63,13.41-6.39,27.01-8.71,40.7-1.96,11.55-3.61,23.15-4.95,34.78-1.11,9.7-1.97,19.43-2.89,29.14-1.44,15.23-2.27,30.51-2.96,45.79-.89,19.84-1.15,39.7-1.03,59.56,.03,4.99,0,9.99,.17,14.97,.45,14.32,.8,28.64,1.52,42.94,.59,11.59,1.5,23.17,2.55,34.73,1.6,17.61,3.8,35.15,7.11,52.54,1.82,9.59,3.87,19.14,7.01,28.4,1.7,5.03,3.73,9.95,5.59,14.92,1.33,3.56,2.65,7.11,3.91,10.69,.83,2.37,1.19,4.82,1.12,7.36-.11,4.34-3.82,8.88-8.99,9.78-.82,.14-1.73-.02-2.56-.22-2.73-.66-4.89-2.27-6.72-4.35-2.31-2.63-4.05-5.62-5.5-8.8-4.37-9.59-9.42-18.82-15.23-27.61-17.57-26.58-39.93-48.2-67.18-64.75-2.5-1.52-5.09-2.9-7.65-4.31-4.69-2.58-6.49-6.1-5.39-11.34,.79-3.74,1.01-7.51,1.28-11.3,.51-7.25,1.1-14.5,1.67-21.74,.48-6.06,.96-12.11,1.48-18.17,.57-6.7,1.17-13.4,1.76-20.1,.5-5.62,.99-11.24,1.5-16.86,.78-8.53,1.59-17.07,2.38-25.6,.51-5.51,1.01-11.02,1.53-16.53,.79-8.42,1.59-16.85,2.37-25.27,.53-5.72,1.04-11.45,1.56-17.18,.79-8.75,1.59-17.5,2.36-26.26,.54-6.16,1.03-12.32,1.54-18.49,.24-2.92,.47-5.84,.68-8.76,.05-.74,0-1.49,0-2.3-1.16-.04-1.56,.84-2.09,1.42-7.63,8.33-14.87,16.98-21.76,25.93-15.86,20.59-29.59,42.56-42.04,65.35-12.17,22.29-23.14,45.17-33.76,68.22-3.77,8.17-7.46,16.38-11.19,24.58-.27,.59-.53,1.19-.81,1.77-1.9,3.9-5,5.86-9.37,5.75-.87-.02-1.74-.06-2.6-.13-9.22-.77-18.42-.62-27.65-.05-21.67,1.33-42.77,5.49-63.34,12.4-16.62,5.59-32.41,12.93-47.39,22.04-1.58,.96-3.15,1.92-5.04,2.17-4.39,.57-8.15-1.46-10.12-5.5-.42-.85-.5-1.93-1.59-2.31v-3.26Z"/>
  <path class="cls-1" d="M929.14,529.58c-.1,.05-.26,.08-.28,.15-1.99,5.75-6.46,8.4-12.04,9.68-3.84,.88-7.6,.6-11.1-1.18-6.33-3.21-13.03-5.37-19.84-7.18-11.12-2.95-22.4-5.15-33.8-6.71-8.17-1.11-16.34-2.2-24.54-3.03-7.34-.74-14.71-1.15-22.07-1.63-12.35-.8-24.72-1.16-37.1-1.08-6.19,.04-12.37,.26-18.55,.42-.75,.02-1.5,.14-2.36,.22-.18,.78-.43,1.49-.5,2.22-.49,5.29-.97,10.59-1.41,15.88-.62,7.35-1.23,14.7-1.8,22.06-.52,6.81-1.01,13.63-1.47,20.45-.62,9.2-1.2,18.41-1.78,27.61-.27,4.22-.52,8.45-.73,12.67-.54,11.05-1.11,22.11-1.55,33.17-.81,20.27-1.64,40.55-2.27,60.83-.5,16.05-.7,32.11-1.04,48.17-.77,36.13-.75,72.27-.73,108.4,0,12.7,.17,25.39,.18,38.09,0,1.83,.33,3.31,1.66,4.68,3.99,4.08,3.4,12.09-3.28,15.26-9.03,4.28-17.59,9.42-25.84,15.06-24.76,16.91-45.65,37.64-61.93,62.91-3.71,5.75-7.1,11.68-10.18,17.78-1.58,3.11-3.46,6.02-5.85,8.58-1.89,2.02-4.11,3.51-6.82,4.24-1.19,.32-2.34,.3-3.52-.05-5.36-1.58-8.68-6.85-7.51-12.05,.52-2.32,1.13-4.65,2.03-6.84,2.43-5.92,4.98-11.79,7.62-17.62,1.05-2.33,1.54-4.67,1.67-7.21,.51-10.19,1.15-20.36,1.74-30.55,.24-4.22,.49-8.45,.72-12.67,.74-13.65,1.46-27.3,2.23-40.95,.75-13.32,1.56-26.65,2.3-39.97,.55-9.86,1.03-19.72,1.57-29.58,.53-9.53,1.12-19.06,1.65-28.6,.53-9.42,1-18.85,1.53-28.28,.55-9.97,1.14-19.93,1.71-29.9,.25-4.33,.5-8.67,.73-13,.75-13.65,1.47-27.3,2.24-40.95,.85-15.17,1.74-30.33,2.62-45.49,.64-10.94,1.28-21.88,1.93-32.82,.87-14.51,1.74-29.03,2.62-43.54,.63-10.4,1.27-20.79,1.94-31.19,.27-4.22,.64-8.44,.95-12.66,.05-.62,0-1.26,0-2.01-1.36-.23-2.5,.14-3.62,.38-27.28,5.85-54.05,13.49-80.35,22.8-1.53,.54-3.04,1.12-4.71,1.15-3.28,.08-5.91-1.18-7.92-3.73-.6-.76-1.1-1.61-1.66-2.42-10.7-15.62-22.51-30.31-36-43.63-9.45-9.33-19.59-17.78-31.03-24.63-5.87-3.52-7.74-9.33-5.34-15.73,.85-2.26,2.07-4.32,3.63-6.13,1.56-1.8,3.15-3.61,4.94-5.17,10.73-9.36,20.69-19.5,30.44-29.85,47.04-49.91,88.89-103.82,124.88-162.23,11.04-17.93,21.34-36.28,30.89-55.04,.3-.58,.57-1.17,.89-1.74,1.25-2.29,3.11-3.92,5.62-4.64,9.38-2.69,18.78-5.35,28.54-6.34,13.34-1.35,25.13,2.16,35.09,11.33,3.53,3.25,6.71,6.79,9.54,10.65,1.73,2.36,3.43,4.75,5,7.22,4.19,6.58,10.14,10.62,17.69,12.26,3.06,.66,6.21,.91,9.32,1.34,3.22,.44,6.47,.74,9.65,1.37,1.78,.35,3.54,1.08,5.15,1.93,1.41,.75,2.77,1.76,3.85,2.93,2.48,2.71,3,5.92,1.77,9.39-.18,.51-.44,.99-.69,1.47-8.2,16.21-14.47,33.19-19.88,50.49-6.32,20.2-11.31,40.74-15.65,61.44-3.13,14.97-5.85,30.01-8.31,45.1-1.4,8.56-2.62,17.15-3.91,25.73-.06,.42,0,.85,0,1.2,.78,.83,1.69,.56,2.51,.56,6.19,.04,12.37,.05,18.56,.08,10.75,.04,21.48,.64,32.19,1.54,23.28,1.97,46.29,5.55,68.75,12.2,1.03,.31,2.11,.52,3.18,.61,6.16,.57,11.49,3.02,16.12,7.04,3.92,3.4,6.78,7.59,8.95,12.27,2.3,4.96,3.59,10.2,4.59,15.55,.94,5,2.07,9.97,3.15,14.95,.21,.95,.54,1.88,.83,2.81,.83,2.68,2.26,4.83,4.78,6.31,2.84,1.67,5.14,4,6.86,6.83,.77,1.26,1.31,2.65,1.96,3.98v6.51Zm-241.43-264.61c-.93,.91-1.44,2.11-2.08,3.2-18.61,31.61-38.3,62.54-59.18,92.71-23.24,33.58-47.74,66.18-75.37,96.32-.34,.37-.63,.78-.95,1.18,.35,.24,.53,.46,.68,.44,35.07-3.58,70.21-6.57,105.15-11.38,.41-.06,.8-.25,1.05-.32,.19-.24,.26-.32,.31-.41,.05-.09,.1-.2,.11-.3,1.14-8.6,2.21-17.21,3.42-25.8,7.28-51.78,16.95-103.14,27.21-154.4,.04-.21,.05-.43,.05-.65,0-.1-.03-.22-.08-.31-.03-.07-.12-.11-.33-.28Z"/>
  <path class="cls-1" d="M501.25,41.89c.23,.21,.42,.49,.68,.63,1.81,.97,2.59,2.5,2.66,4.51,.1,2.82,.29,5.63,.42,8.45,.31,6.83,.52,13.66,.92,20.48,.75,12.99,1.52,25.99,3.23,38.9,.97,7.31,2.2,14.58,4.42,21.64,1.01,3.21,2.24,6.33,3.8,9.32,3.28,6.27,8.1,10.93,14.45,14.02,5.01,2.44,10.31,3.95,15.73,5.12,6.9,1.48,13.87,2.51,20.87,3.32,2.05,.24,4.09,.47,6.14,.75,.86,.12,1.73,.26,2.54,.54,1.92,.67,3.07,2.44,3.05,4.53-.02,2.07-1.24,3.85-3.18,4.44-1.03,.31-2.12,.44-3.2,.59-6.66,.93-13.33,1.76-19.97,2.78-5.47,.84-10.86,2.06-16.09,3.9-1.74,.61-3.45,1.29-5.13,2.06-7.08,3.23-12.3,8.39-15.73,15.37-2.36,4.8-3.92,9.87-5.09,15.06-1.63,7.2-2.64,14.5-3.41,21.84-1.35,12.84-2.14,25.72-2.71,38.62-.32,7.15-.69,14.3-1.04,21.45-.03,.65-.02,1.31-.13,1.95-.37,2.09-2.09,3.67-4.22,3.94-2,.25-4.18-.99-4.9-3-.36-1-.46-2.11-.52-3.18-.23-4.33-.37-8.67-.59-13-.5-9.86-.91-19.72-1.58-29.57-.76-11.25-1.75-22.49-3.8-33.6-.93-5.01-2.05-9.98-3.82-14.78-.68-1.83-1.4-3.64-2.24-5.4-3.5-7.35-8.98-12.66-16.44-15.96-4.39-1.94-8.95-3.3-13.61-4.33-6.89-1.52-13.86-2.56-20.86-3.4-2.58-.31-5.17-.62-7.74-1-.84-.12-1.74-.32-2.46-.74-1.75-1.01-2.61-2.63-2.35-4.64,.26-1.98,1.37-3.41,3.34-4,.93-.28,1.91-.42,2.88-.53,7.76-.85,15.5-1.88,23.17-3.34,4.9-.93,9.76-2.06,14.43-3.86,1.72-.66,3.42-1.37,5.07-2.2,5.89-2.96,10.41-7.34,13.59-13.13,2.68-4.89,4.38-10.14,5.67-15.53,1.62-6.76,2.63-13.62,3.41-20.52,1.8-16.07,2.65-32.21,3.32-48.36,.19-4.55,.51-9.1,.56-13.65,.03-3.01,1.02-5.25,3.87-6.48,.87,0,1.74,0,2.61,0Z"/>
</svg>